# xmcd
#
# Track frame offsets:
# 150
# 15053
# 27177
# 38465
# 50763
# 64573
# 77630
# 90047
# 99782
# 116448
# 127221
# 140599
# 153814
# 165938
# 179657
# 195933
# 209360
# 220181
# 237481
# 251625
# 263247
# 279049
# 290964
# 304614
#
# Disc length: 4241 seconds
#
#
# Revision: 0
# Processed by: cddbd v1.5.2PL0 Copyright (c) Steve Scherf et al.
# Submitted via: FreeRIP 2.951 
#
DISCID=38108f18
DTITLE=Zilo e Zalo - Série 2 em 1
DYEAR=2007
DGENRE=Sertanejo
TTITLE0=O Milagre do Ladrão
TTITLE1=Feitiço Espanhol
TTITLE2=Recordação
TTITLE3=Arrependimento
TTITLE4=Remorso
TTITLE5=O Silêncio do Seresteiro
TTITLE6=Coisas do Destino
TTITLE7=Mulher Inocente
TTITLE8=Última Noite
TTITLE9=Amigo Fiel
TTITLE10=Bom Exemplo
TTITLE11=Covardia
TTITLE12=Briguei Com Ela
TTITLE13=Diploma de Carreiro
TTITLE14=Grão de Areia
TTITLE15=Não Posso Ficar
TTITLE16=Alma Inocente
TTITLE17=Teu Grande Dia
TTITLE18=Amarga Herança
TTITLE19=Tango da Meia Noite
TTITLE20=Recusas de Amor
TTITLE21=Estrela Guia
TTITLE22=Violão Amigo
TTITLE23=Meu Fracasso
EXTD=O melhor do sertanejo de raíz.
EXTT0=
EXTT1=
EXTT2=
EXTT3=
EXTT4=
EXTT5=
EXTT6=
EXTT7=
EXTT8=
EXTT9=
EXTT10=
EXTT11=
EXTT12=
EXTT13=
EXTT14=
EXTT15=
EXTT16=
EXTT17=
EXTT18=
EXTT19=
EXTT20=
EXTT21=
EXTT22=
EXTT23=
PLAYORDER=
